<?xml version="1.0" encoding="UTF-8"?>
<svg width="17px" height="23px" viewBox="0 0 17 23" version="1.1" xmlns="http://www.w3.org/2000/svg" xmlns:xlink="http://www.w3.org/1999/xlink">
    <title>09425671-EB3E-4971-A70A-31070D851195</title>
    <g id="Page-1" stroke="none" stroke-width="1" fill="none" fill-rule="evenodd">
        <g id="T18---products-detail" transform="translate(-1166.000000, -482.000000)" fill="#FFFFFF" fill-rule="nonzero">
            <g id="Group-2" transform="translate(1110.000000, 468.000000)">
                <g id="icon-cart" transform="translate(56.000000, 14.000000)">
                    <path d="M16.3052885,6.3955095 L14.0168269,6.3955095 L14.0168269,5.3626943 C14.0168269,2.42314335 11.5649038,0 8.5,0 C5.47596154,0 2.98317308,2.38341969 2.98317308,5.3626943 L2.98317308,6.3955095 L0.694711538,6.3955095 C0.326923077,6.3955095 0,6.71329879 0,7.07081174 L0,20.1001727 C0,21.6891192 1.34855769,23 2.98317308,23 L14.0576923,23 C15.6923077,23 17,21.6891192 17,20.1001727 L17,7.03108808 C16.9591346,6.67357513 16.6730769,6.3955095 16.3052885,6.3955095 Z M4.37259615,5.3626943 C4.37259615,3.13816926 6.21153846,1.35060449 8.5,1.35060449 L8.5,1.35060449 C10.7884615,1.35060449 12.6274038,3.13816926 12.6274038,5.3626943 L12.6274038,6.3955095 L4.37259615,6.3955095 L4.37259615,5.3626943 Z M15.5697115,20.1001727 C15.5697115,20.9740933 14.875,21.6493955 14.0168269,21.6493955 L2.94230769,21.6493955 C2.04326923,21.6493955 1.34855769,20.9740933 1.34855769,20.1001727 L1.34855769,7.74611399 L2.94230769,7.74611399 L2.94230769,9.65284974 C2.94230769,9.85146805 3.02403846,10.0103627 3.14663462,10.1295337 C3.26923077,10.2487047 3.43269231,10.328152 3.63701923,10.328152 C3.84134615,10.328152 4.00480769,10.2487047 4.12740385,10.1295337 C4.25,10.0103627 4.33173077,9.81174439 4.33173077,9.65284974 L4.33173077,7.74611399 L12.5456731,7.74611399 L12.5456731,9.65284974 C12.5456731,9.85146805 12.6274038,10.0103627 12.75,10.1295337 C12.8725962,10.2487047 13.0769231,10.328152 13.2403846,10.328152 C13.4447115,10.328152 13.6081731,10.2487047 13.7307692,10.1295337 C13.8533654,10.0103627 13.9350962,9.81174439 13.9350962,9.65284974 L13.9350962,7.74611399 L15.5697115,7.74611399 L15.5697115,20.1001727 Z" id="Shape"></path>
                </g>
            </g>
        </g>
    </g>
</svg>