<?xml version="1.0" encoding="UTF-8"?>
<svg width="25px" height="24px" viewBox="0 0 25 24" version="1.1" xmlns="http://www.w3.org/2000/svg" xmlns:xlink="http://www.w3.org/1999/xlink">
    <title>1B9CBB6D-DA4B-44B1-BF84-0229405B1D75</title>
    <g id="Page-1" stroke="none" stroke-width="1" fill="none" fill-rule="evenodd">
        <g id="T18---products-detail" transform="translate(-1449.000000, -482.000000)" fill="#FFFFFF" fill-rule="nonzero">
            <g id="Group-2" transform="translate(1410.000000, 468.000000)">
                <g id="icon-wishlist" transform="translate(39.000000, 14.000000)">
                    <path d="M24.9530699,9.1349481 C24.8708184,8.84429066 24.5829379,8.6366782 24.2950574,8.6366782 C24.2950574,8.6366782 24.2950574,8.6366782 24.2950574,8.6366782 L15.8231457,8.6366782 L13.1910955,0.498269896 C13.1088439,0.207612457 12.8209634,0 12.4919571,0 C12.2040766,0 11.9161962,0.207612457 11.8339446,0.498269896 L9.24302014,8.6366782 L0.729982681,8.6366782 C0.729982681,8.6366782 0.729982681,8.6366782 0.729982681,8.6366782 C0.400976402,8.6366782 0.154221693,8.84429066 0.0308443386,9.1349481 C-0.051407231,9.42560554 0.0308443386,9.75778547 0.277599048,9.92387543 L7.14560511,14.9480969 L4.51355488,23.0865052 C4.43130331,23.3771626 4.51355488,23.7093426 4.76030959,23.8754325 C4.88368695,23.9584775 5.04819009,24 5.17156744,24 C5.33607058,24 5.45944794,23.9584775 5.58282529,23.8754325 L12.4508314,18.8096886 L19.3188374,23.8754325 C19.5655921,24.0415225 19.8945984,24.0415225 20.1413531,23.8754325 C20.3881078,23.7093426 20.5114852,23.3771626 20.3881078,23.0865052 L17.7560576,14.9480969 L24.6240637,9.92387543 C24.9530699,9.75778547 25.0764473,9.42560554 24.9530699,9.1349481 Z M8.70838494,14.9065744 C8.79063651,14.615917 8.70838494,14.283737 8.46163023,14.1176471 L2.95077506,10.0899654 L9.73652956,10.0899654 C9.73652956,10.0899654 9.73652956,10.0899654 9.73652956,10.0899654 C10.0655358,10.0899654 10.3122905,9.88235294 10.4356679,9.5916955 L12.5330829,3.07266436 L14.630498,9.5916955 C14.7127495,9.88235294 15.00063,10.0899654 15.3296363,10.0899654 C15.3296363,10.0899654 15.3296363,10.0899654 15.3296363,10.0899654 L22.1153908,10.0899654 L16.6045356,14.1176471 C16.3577809,14.283737 16.2344036,14.615917 16.3577809,14.9065744 L18.4140702,21.4256055 L12.9443408,17.3979239 C12.8209634,17.3148789 12.6564603,17.2733564 12.5330829,17.2733564 C12.3685798,17.2733564 12.2452024,17.3148789 12.1218251,17.3979239 L6.6520957,21.4256055 L8.70838494,14.9065744 Z" id="Shape"></path>
                </g>
            </g>
        </g>
    </g>
</svg>