<?xml version="1.0" encoding="UTF-8"?>
<svg width="30px" height="30px" viewBox="0 0 30 30" version="1.1" xmlns="http://www.w3.org/2000/svg" xmlns:xlink="http://www.w3.org/1999/xlink">
    <title>11C1A4D5-55EC-4244-8D78-4C718A5E6D37</title>
    <g id="Page-1" stroke="none" stroke-width="1" fill="none" fill-rule="evenodd">
        <g id="T22---media-center" transform="translate(-271, -3029)" fill="#B2334E">
            <g id="video" transform="translate(271, 2716)">
                <g id="play-circle-outline" transform="translate(0, 313)">
                    <path d="M12,21.75 L21,15 L12,8.25 L12,21.75 L12,21.75 Z M15,0 C6.75,0 0,6.75 0,15 C0,23.25 6.75,30 15,30 C23.25,30 30,23.25 30,15 C30,6.75 23.25,0 15,0 L15,0 Z M3,15 C3,8.4 8.4,3 15,3 C21.6,3 27,8.4 27,15 C27,21.6 21.6,27 15,27 C8.4,27 3,21.6 3,15 Z" id="Shape"></path>
                </g>
            </g>
        </g>
    </g>
</svg>